<svg width="24" height="38" viewBox="0 0 24 38" fill="none" xmlns="http://www.w3.org/2000/svg">
<path d="M13.5 2C13.5 1.17157 12.8284 0.5 12 0.5C11.1716 0.5 10.5 1.17157 10.5 2L13.5 2ZM10.9393 37.0607C11.5251 37.6464 12.4749 37.6464 13.0607 37.0607L22.6066 27.5147C23.1924 26.9289 23.1924 25.9792 22.6066 25.3934C22.0208 24.8076 21.0711 24.8076 20.4853 25.3934L12 33.8787L3.51472 25.3934C2.92893 24.8076 1.97918 24.8076 1.3934 25.3934C0.80761 25.9792 0.80761 26.9289 1.3934 27.5147L10.9393 37.0607ZM10.5 2L10.5 36L13.5 36L13.5 2L10.5 2Z" fill="#F89880"/>
</svg>
