<svg width="23" height="24" viewBox="0 0 23 24" fill="none" xmlns="http://www.w3.org/2000/svg">
<path d="M1.5 10.5C0.671573 10.5 0 11.1716 0 12C0 12.8284 0.671573 13.5 1.5 13.5L1.5 10.5ZM22.5607 13.0607C23.1464 12.4749 23.1464 11.5251 22.5607 10.9393L13.0147 1.3934C12.4289 0.807611 11.4792 0.807611 10.8934 1.3934C10.3076 1.97919 10.3076 2.92893 10.8934 3.51472L19.3787 12L10.8934 20.4853C10.3076 21.0711 10.3076 22.0208 10.8934 22.6066C11.4792 23.1924 12.4289 23.1924 13.0147 22.6066L22.5607 13.0607ZM1.5 13.5L21.5 13.5V10.5L1.5 10.5L1.5 13.5Z" fill="white"/>
</svg>
