<svg width="47" height="47" viewBox="0 0 47 47" fill="none" xmlns="http://www.w3.org/2000/svg">
<path fill-rule="evenodd" clip-rule="evenodd" d="M47 23.5C47 36.4785 36.4785 47 23.5 47C10.5215 47 0 36.4785 0 23.5C0 10.5215 10.5215 0 23.5 0C36.4785 0 47 10.5215 47 23.5ZM22.0439 23.3477L16.6357 17.6958C15.9775 17.0073 15.8301 16.2197 16.1953 15.3325C16.5586 14.4443 17.208 14 18.1436 14H28.8564C29.792 14 30.4414 14.4443 30.8047 15.3325C31.1699 16.2197 31.0225 17.0073 30.3643 17.6958L24.9561 23.3477C24.748 23.5654 24.5225 23.728 24.2803 23.8369C24.0371 23.9458 23.7773 24 23.5 24C23.2227 24 22.9629 23.9458 22.7197 23.8369C22.4775 23.728 22.252 23.5654 22.0439 23.3477ZM23.5 24H28.8564C29.792 24 30.4414 24.4443 30.8047 25.3325C30.9951 25.7954 31.0459 26.231 30.958 26.6396C30.877 27.0146 30.6787 27.3667 30.3643 27.6958L24.9561 33.3477C24.748 33.5654 24.5225 33.728 24.2803 33.8369C24.0371 33.9458 23.7773 34 23.5 34C23.2227 34 22.9629 33.9458 22.7197 33.8369C22.5928 33.7798 22.4697 33.7075 22.3516 33.6201C22.2451 33.5415 22.1426 33.4507 22.0439 33.3477L16.6357 27.6958C16.3008 27.3457 16.0986 26.9702 16.0283 26.5688C15.96 26.1807 16.0156 25.7686 16.1953 25.3325C16.5586 24.4443 17.208 24 18.1436 24H23.5Z" fill="#F89880"/>
</svg>
