<svg width="40" height="40" viewBox="0 0 40 40" fill="none" xmlns="http://www.w3.org/2000/svg">
<path d="M38.4 0H1.6C0.715 0 0 0.715 0 1.6V38.4C0 39.285 0.715 40 1.6 40H38.4C39.285 40 40 39.285 40 38.4V1.6C40 0.715 39.285 0 38.4 0ZM32.8 10.285L30.76 12.24C30.58 12.375 30.495 12.595 30.53 12.81V27.195C30.495 27.415 30.58 27.635 30.76 27.765L32.76 29.72V30.155H22.72V29.74L24.785 27.735C24.99 27.53 24.99 27.47 24.99 27.165V15.525L19.24 30.105H18.465L11.775 15.525V25.3C11.715 25.71 11.86 26.125 12.15 26.42L14.84 29.675V30.11H7.2V29.675L9.89 26.42C10.0317 26.2736 10.1372 26.096 10.198 25.9016C10.2588 25.7071 10.2731 25.501 10.24 25.3V14C10.275 13.685 10.155 13.38 9.915 13.165L7.525 10.285V9.85H14.95L20.68 22.425L25.725 9.86H32.8V10.285Z" fill="#A3A3A3"/>
</svg>
