<svg width="9" height="15" viewBox="0 0 9 15" fill="none" xmlns="http://www.w3.org/2000/svg">
<path d="M1.78341 0.296834L8.77189 6.94591C8.85484 7.02507 8.91346 7.11082 8.94774 7.20317C8.98258 7.29552 9 7.39446 9 7.5C9 7.60554 8.98258 7.70449 8.94774 7.79683C8.91346 7.88918 8.85484 7.97494 8.77189 8.05409L1.78341 14.723C1.58986 14.9077 1.34793 15 1.0576 15C0.76728 15 0.518433 14.9011 0.311059 14.7032C0.103685 14.5053 -8.90241e-07 14.2744 -8.67174e-07 14.0106C-8.44108e-07 13.7467 0.103686 13.5158 0.311059 13.3179L6.40783 7.5L0.31106 1.68206C0.117512 1.49736 0.0207369 1.26992 0.020737 0.999736C0.020737 0.729024 0.124424 0.494723 0.331797 0.296834C0.539171 0.0989449 0.781106 2.35156e-07 1.0576 2.59328e-07C1.3341 2.835e-07 1.57604 0.098945 1.78341 0.296834Z" fill="#F89880"/>
</svg>
