<svg width="47" height="47" viewBox="0 0 47 47" fill="none" xmlns="http://www.w3.org/2000/svg">
<circle cx="23.5" cy="23.5" r="23.5" fill="#F89880"/>
<path d="M15.05 33C14.75 33 14.5 32.9 14.3 32.7C14.1 32.5 14 32.25 14 31.95V27.9C14 27.6667 14.075 27.4623 14.225 27.287C14.375 27.1123 14.5667 27 14.8 26.95L18.25 26.25C18.4833 26.2167 18.721 26.2373 18.963 26.312C19.2043 26.3873 19.4 26.5 19.55 26.65L21.9 29C23.1667 28.2333 24.325 27.325 25.375 26.275C26.425 25.225 27.3 24.1 28 22.9L25.6 20.45C25.45 20.3 25.354 20.129 25.312 19.937C25.2707 19.7457 25.2667 19.5333 25.3 19.3L25.95 15.8C25.9833 15.5667 26.0917 15.375 26.275 15.225C26.4583 15.075 26.6667 15 26.9 15H30.95C31.25 15 31.5 15.1 31.7 15.3C31.9 15.5 32 15.75 32 16.05C32 18.2 31.5207 20.2957 30.562 22.337C29.604 24.379 28.3373 26.1873 26.762 27.762C25.1873 29.3373 23.3793 30.604 21.338 31.562C19.296 32.5207 17.2 33 15.05 33Z" fill="white"/>
</svg>
