<svg width="50" height="40" viewBox="0 0 50 40" fill="none" xmlns="http://www.w3.org/2000/svg">
<path d="M45 40H5C3.67392 40 2.40215 39.4732 1.46447 38.5355C0.526784 37.5979 0 36.3261 0 35V4.7825C0.0560816 3.49448 0.607522 2.2779 1.5392 1.38675C2.47087 0.495607 3.71076 -0.0012181 5 2.2428e-06H45C46.3261 2.2428e-06 47.5979 0.526786 48.5355 1.46447C49.4732 2.40215 50 3.67392 50 5V35C50 36.3261 49.4732 37.5979 48.5355 38.5355C47.5979 39.4732 46.3261 40 45 40ZM5 9.67V35H45V9.67L25 23L5 9.67ZM7 5L25 17L43 5H7Z" fill="black"/>
</svg>
