<svg width="47" height="47" viewBox="0 0 47 47" fill="none" xmlns="http://www.w3.org/2000/svg">
<circle cx="23.5" cy="23.5" r="23.5" fill="#F89880"/>
<path d="M32.7 33H14.3C13.69 33 13.105 32.7629 12.6737 32.341C12.2423 31.919 12 31.3467 12 30.75V17.1521C12.0258 16.5725 12.2795 16.0251 12.708 15.624C13.1366 15.223 13.7069 14.9995 14.3 15H32.7C33.31 15 33.895 15.2371 34.3263 15.659C34.7577 16.081 35 16.6533 35 17.25V30.75C35 31.3467 34.7577 31.919 34.3263 32.341C33.895 32.7629 33.31 33 32.7 33ZM14.3 19.3515V30.75H32.7V19.3515L23.5 25.35L14.3 19.3515ZM15.22 17.25L23.5 22.65L31.78 17.25H15.22Z" fill="white"/>
</svg>
