<svg width="270" height="61" viewBox="0 0 270 61" fill="none" xmlns="http://www.w3.org/2000/svg">
<path d="M17.57 43.9991C21.1956 47.5959 25.5741 49.3942 30.7057 49.3942C35.8372 49.3942 40.1879 47.5959 43.7577 43.9991C47.3833 40.3479 49.196 35.961 49.196 30.8384C49.196 25.7158 47.3833 21.3561 43.7577 17.7594C40.1879 14.1081 35.8372 12.2825 30.7057 12.2825C25.5741 12.2825 21.1956 14.1081 17.57 17.7594C14.0002 21.3561 12.2153 25.7158 12.2153 30.8384C12.2153 35.961 14.0002 40.3479 17.57 43.9991ZM52.3754 52.0918C46.4071 57.9228 39.1839 60.8384 30.7057 60.8384C22.2275 60.8384 14.9763 57.9228 8.95234 52.0918C2.98411 46.2062 0 39.1218 0 30.8384C0 22.555 2.98411 15.4978 8.95234 9.66672C14.9763 3.78116 22.2275 0.838379 30.7057 0.838379C39.1839 0.838379 46.4071 3.78116 52.3754 9.66672C58.3994 15.4978 61.4114 22.555 61.4114 30.8384C61.4114 39.1218 58.3994 46.2062 52.3754 52.0918Z" fill="black"/>
<path d="M124.129 59.8574H113.671L83.2164 22.01V59.8574H71.0847V1.81931H81.543L111.998 39.6667V1.81931H124.129V59.8574Z" fill="black"/>
<path d="M137.348 1.81931H148.392L167.719 27.7321L187.046 1.81931H198.09V59.8574H185.958V22.0918L167.719 46.5332L149.48 22.0918V59.8574H137.348V1.81931Z" fill="black"/>
<path d="M225.348 43.9991C228.973 47.5959 233.352 49.3942 238.483 49.3942C243.615 49.3942 247.966 47.5959 251.535 43.9991C255.161 40.3479 256.974 35.961 256.974 30.8384C256.974 25.7158 255.161 21.3561 251.535 17.7594C247.966 14.1081 243.615 12.2825 238.483 12.2825C233.352 12.2825 228.973 14.1081 225.348 17.7594C221.778 21.3561 219.993 25.7158 219.993 30.8384C219.993 35.961 221.778 40.3479 225.348 43.9991ZM260.153 52.0918C254.185 57.9228 246.962 60.8384 238.483 60.8384C230.005 60.8384 222.754 57.9228 216.73 52.0918C210.762 46.2062 207.778 39.1218 207.778 30.8384C207.778 22.555 210.762 15.4978 216.73 9.66672C222.754 3.78116 230.005 0.838379 238.483 0.838379C246.962 0.838379 254.185 3.78116 260.153 9.66672C266.177 15.4978 269.189 22.555 269.189 30.8384C269.189 39.1218 266.177 46.2062 260.153 52.0918Z" fill="black"/>
</svg>
