<svg width="90" height="90" viewBox="0 0 90 90" fill="none" xmlns="http://www.w3.org/2000/svg">
<path d="M45 0C20.1496 0 0 20.1496 0 45C0 69.8504 20.1496 90 45 90C69.8504 90 90 69.8504 90 45C90 20.1496 69.8504 0 45 0ZM45 82.3661C24.3683 82.3661 7.63393 65.6317 7.63393 45C7.63393 24.3683 24.3683 7.63393 45 7.63393C65.6317 7.63393 82.3661 24.3683 82.3661 45C82.3661 65.6317 65.6317 82.3661 45 82.3661Z" fill="black"/>
<path d="M65.8326 43.7042L36.0904 22.1082C35.8519 21.9333 35.5694 21.8282 35.2746 21.8044C34.9798 21.7806 34.6842 21.8391 34.4207 21.9735C34.1572 22.1078 33.9362 22.3127 33.7823 22.5653C33.6284 22.8178 33.5477 23.1082 33.5491 23.404V66.5959C33.5491 67.9118 35.0357 68.6551 36.0904 67.8917L65.8326 46.2957C66.0379 46.1477 66.2052 45.9531 66.3205 45.7278C66.4359 45.5025 66.496 45.253 66.496 44.9999C66.496 44.7468 66.4359 44.4974 66.3205 44.2721C66.2052 44.0468 66.0379 43.8521 65.8326 43.7042V43.7042ZM39.9576 57.164V32.8359L56.702 44.9999L39.9576 57.164V57.164Z" fill="black"/>
</svg>
