<svg width="9" height="15" viewBox="0 0 9 15" fill="none" xmlns="http://www.w3.org/2000/svg">
<path d="M7.21659 14.7032L0.22811 8.05409C0.145161 7.97493 0.0865436 7.88918 0.0522578 7.79683C0.0174191 7.70448 0 7.60554 0 7.5C0 7.39446 0.0174191 7.29551 0.0522578 7.20317C0.0865436 7.11082 0.145161 7.02506 0.22811 6.94591L7.21659 0.277045C7.41014 0.0923482 7.65207 0 7.9424 0C8.23272 0 8.48157 0.0989446 8.68894 0.296834C8.89631 0.494723 9 0.725594 9 0.989446C9 1.2533 8.89631 1.48417 8.68894 1.68206L2.59217 7.5L8.68894 13.3179C8.88249 13.5026 8.97926 13.7301 8.97926 14.0003C8.97926 14.271 8.87558 14.5053 8.6682 14.7032C8.46083 14.9011 8.21889 15 7.9424 15C7.6659 15 7.42396 14.9011 7.21659 14.7032Z" fill="#F89880"/>
</svg>
